# xmcd
#
# Track frame offsets:
# 150
# 12094
# 33156
# 48206
# 63578
# 79975
# 98623
# 119436
# 137923
# 155001
#
# Disc length: 2272 seconds
#
# Revision: 1
# Processed by: cddbd v1.5.1PL0 Copyright (c) Steve Scherf et al.
# Submitted via: CedeCatalogueitor 2.6.0.6 http://personales.ya.com/cdcatalogueitor
#
DISCID=7c08de0a
DTITLE=Joé Luis Perales - Inolvidables 
DYEAR=1996
DGENRE=
TTITLE0=El Pregón
TTITLE1=Y Te Vas
TTITLE2=Para Vosotros Canto
TTITLE3=Por Ti
TTITLE4=Si...
TTITLE5=Si Quieres Encontrarme
TTITLE6=Quisiera Decir Tu Nombre
TTITLE7=Yo Quiero Ser
TTITLE8=Soledades
TTITLE9=Pequeño Marinero
EXTD=Acoplamiento Especial Para CIRCULO DE LECTORES
EXTT0=
EXTT1=
EXTT2=
EXTT3=
EXTT4=
EXTT5=
EXTT6=
EXTT7=
EXTT8=
EXTT9=
PLAYORDER=
